<svg width="24" height="18" viewBox="0 0 24 18" fill="none" xmlns="http://www.w3.org/2000/svg">
<path d="M6.22 17.12C5.26 17.12 4.42 16.94 3.7 16.58C2.98 16.18 2.4 15.66 1.96 15.02C1.56 14.38 1.24 13.62 1 12.74C0.76 11.86 0.64 10.94 0.64 9.98C0.64 8.02 1.14 6.18 2.14 4.46C3.18 2.74 4.78 1.38 6.94 0.379997L7.48 1.46C6.36 1.98 5.36 2.74 4.48 3.74C3.64 4.7 3.14 5.72 2.98 6.8C2.74 7.64 2.72 8.46 2.92 9.26C3.8 8.3 4.98 7.82 6.46 7.82C7.82 7.82 8.94 8.24 9.82 9.08C10.7 9.88 11.14 11 11.14 12.44C11.14 13.84 10.68 14.98 9.76 15.86C8.84 16.7 7.66 17.12 6.22 17.12ZM18.58 17.12C17.62 17.12 16.78 16.94 16.06 16.58C15.34 16.18 14.76 15.66 14.32 15.02C13.92 14.38 13.6 13.62 13.36 12.74C13.12 11.86 13 10.94 13 9.98C13 8.02 13.5 6.18 14.5 4.46C15.54 2.74 17.14 1.38 19.3 0.379997L19.84 1.46C18.72 1.98 17.72 2.74 16.84 3.74C16 4.7 15.5 5.72 15.34 6.8C15.1 7.64 15.08 8.46 15.28 9.26C16.16 8.3 17.34 7.82 18.82 7.82C20.18 7.82 21.3 8.24 22.18 9.08C23.06 9.88 23.5 11 23.5 12.44C23.5 13.84 23.04 14.98 22.12 15.86C21.2 16.7 20.02 17.12 18.58 17.12Z" fill="white"/>
</svg>
